<svg class="material-renderer-svg" viewBox="276 176 48 48" xmlns="http://www.w3.org/2000/svg" width="48" height="48"><defs/><rect x="0" y="0" width="600" height="400" fill="transparent" data-canvas-bg="true"/><g transform="translate(276, 176)" data-object-id="default_8cfa85d9-942d-4f40-b5d8-2f0b5781d617" data-object-type="rect" cursor="default" style="pointer-events: all; cursor: default;"><rect x="0" y="0" width="48" height="48" rx="0" ry="0" fill="rgba(0,0,0,0.001)" stroke="none"/></g><g transform="translate(276, 176)" data-object-id="mo_mocp5f42_hxdmef" data-object-type="rect" cursor="move"><rect x="0" y="0" width="48" height="48" rx="24" ry="24" fill="transparent" stroke="none"/></g><g transform="translate(287, 190)" data-object-id="mo_mocp5jk4_myf7h4" data-object-type="rect" cursor="move"><rect x="0" y="0" width="26" height="20" rx="8" ry="8" fill="#ffffff" stroke="none"/></g><g transform="translate(290, 198)" data-object-id="mo_mocp5n2w_rwuifn" data-object-type="rect" cursor="move"><rect x="0" y="0" width="2.5" height="7" rx="1" ry="0" fill="#ec4899" stroke="none"/></g><g transform="translate(294.25, 195)" data-object-id="mo_mocp5p9w_pwqslb" data-object-type="rect" cursor="move"><rect x="0" y="0" width="2.5" height="11" rx="1" ry="0" fill="#f472b6" stroke="none"/></g><g transform="translate(298.5, 193)" data-object-id="mo_mocp5rx5_2h5tm8" data-object-type="rect" cursor="move"><rect x="0" y="0" width="2.5" height="14" rx="1" ry="0" fill="#db2777" stroke="none"/></g><g transform="translate(302.75, 196)" data-object-id="mo_mocp5tnx_0b92dq" data-object-type="rect" cursor="move"><rect x="0" y="0" width="2.5" height="10" rx="1" ry="0" fill="#f472b6" stroke="none"/></g><g transform="translate(307, 199)" data-object-id="mo_mocp5vnf_kovx4e" data-object-type="rect" cursor="move"><rect x="0" y="0" width="2.5" height="6" rx="1" ry="0" fill="#ec4899" stroke="none"/></g></svg>