<svg class="material-renderer-svg" viewBox="276 176 48 48" xmlns="http://www.w3.org/2000/svg" width="48" height="48"><defs/><rect x="0" y="0" width="600" height="400" fill="transparent" data-canvas-bg="true"/><g transform="translate(276, 176)" data-object-id="default_8cfa85d9-942d-4f40-b5d8-2f0b5781d617" data-object-type="rect" cursor="default" style="pointer-events: all; cursor: default;"><rect x="0" y="0" width="48" height="48" rx="0" ry="0" fill="rgba(0,0,0,0.001)" stroke="none"/></g><g transform="translate(276, 176)" data-object-id="mo_mocnw6fr_svw275" data-object-type="rect" cursor="move"><rect x="0" y="0" width="48" height="48" rx="24" ry="24" fill="#1a1a22" stroke="none"/></g><g transform="translate(287, 190)" data-object-id="mo_mocoqw0z_h3tzd1" data-object-type="rect" cursor="move"><rect x="0" y="0" width="26" height="20" rx="6" ry="0" fill="#ffffff" stroke="none"/></g><g transform="translate(290.1, 198.5)" data-object-id="mo_mocovkpr_1rahtn" data-object-type="rect" cursor="move"><rect x="0" y="0" width="1.8" height="7" rx="1" ry="0" fill="#f472b6" stroke="none"/></g><g transform="translate(290.1, 198.5)" data-object-id="mo_mocovkq4_b6wl7c" data-object-type="rect" cursor="move"><rect x="0" y="0" width="1.8" height="7" rx="1" ry="0" fill="#f472b6" stroke="none"/></g><g transform="translate(294.3, 195.5)" data-object-id="mo_mocovpxx_yqpucm" data-object-type="rect" cursor="move"><rect x="0" y="0" width="1.8" height="11" rx="1" ry="0" fill="#ec4899" stroke="none"/></g><g transform="translate(294.3, 195.5)" data-object-id="mo_mocovpy6_sxpzlt" data-object-type="rect" cursor="move"><rect x="0" y="0" width="1.8" height="11" rx="1" ry="0" fill="#ec4899" stroke="none"/></g><g transform="translate(298.5, 193)" data-object-id="mo_mocovrxq_tkd7ea" data-object-type="rect" cursor="move"><rect x="0" y="0" width="1.8" height="14" rx="1" ry="0" fill="#d946ef" stroke="none"/></g><g transform="translate(298.5, 193)" data-object-id="mo_mocovrxx_pvj3di" data-object-type="rect" cursor="move"><rect x="0" y="0" width="1.8" height="14" rx="1" ry="0" fill="#d946ef" stroke="none"/></g><g transform="translate(302.7, 196)" data-object-id="mo_mocovukf_i8eth9" data-object-type="rect" cursor="move"><rect x="0" y="0" width="1.8" height="10" rx="1" ry="0" fill="#ec4899" stroke="none"/></g><g transform="translate(302.7, 196)" data-object-id="mo_mocovukk_shvx5o" data-object-type="rect" cursor="move"><rect x="0" y="0" width="1.8" height="10" rx="1" ry="0" fill="#ec4899" stroke="none"/></g><g transform="translate(306.9, 199)" data-object-id="mo_mocovw1d_5403g5" data-object-type="rect" cursor="move"><rect x="0" y="0" width="1.8" height="6" rx="1" ry="0" fill="#f472b6" stroke="none"/></g><g transform="translate(306.9, 199)" data-object-id="mo_mocovw1k_cuen1z" data-object-type="rect" cursor="move"><rect x="0" y="0" width="1.8" height="6" rx="1" ry="0" fill="#f472b6" stroke="none"/></g></svg>