<svg class="material-renderer-svg" viewBox="572 425 56 50" xmlns="http://www.w3.org/2000/svg" width="56" height="50"><defs/><g transform="translate(0, 0)" data-object-id="default_d6dba93b-db5d-428b-bf48-3057667e2078" data-object-type="rect" cursor="move" style="opacity: 0;"><rect x="0" y="0" width="600" height="400" rx="0" ry="0" fill="rgba(0,0,0,0)" stroke="none"/></g><g transform="translate(582, 456)" data-object-id="mo_mo55oekl_h0479i" data-object-type="rect" cursor="move"><rect x="0" y="0" width="4" height="10" rx="2" ry="2" fill="#ffffff" stroke="none"/></g><g transform="translate(590, 450)" data-object-id="mo_mo55oekl_3rxtz4" data-object-type="rect" cursor="move"><rect x="0" y="0" width="4" height="16" rx="2" ry="2" fill="#ffffff" stroke="none"/></g><g transform="translate(598, 440)" data-object-id="mo_mo55oekl_qgv4eh" data-object-type="rect" cursor="move"><rect x="0" y="0" width="4" height="26" rx="2" ry="2" fill="#ffffff" stroke="none"/></g><g transform="translate(606, 450)" data-object-id="mo_mo55oekl_67x47v" data-object-type="rect" cursor="move"><rect x="0" y="0" width="4" height="16" rx="2" ry="2" fill="#ffffff" stroke="none"/></g><g transform="translate(614, 456)" data-object-id="mo_mo55oekl_19h2l9" data-object-type="rect" cursor="move"><rect x="0" y="0" width="4" height="10" rx="2" ry="2" fill="#ffffff" stroke="none"/></g><g transform="translate(581, 453)" data-object-id="mo_mo55oekl_7ihila" data-object-type="rect" cursor="move"><rect x="0" y="0" width="5" height="11" rx="2.5" ry="2.5" fill="#ffffff" stroke="none"/></g><g transform="translate(589, 446)" data-object-id="mo_mo55oekl_pnlo5x" data-object-type="rect" cursor="move"><rect x="0" y="0" width="5" height="18" rx="2.5" ry="2.5" fill="#ffffff" stroke="none"/></g><g transform="translate(597, 438)" data-object-id="mo_mo55oekl_q1lpyt" data-object-type="rect" cursor="move"><rect x="0" y="0" width="5" height="26" rx="2.5" ry="2.5" fill="#ffffff" stroke="none"/></g><g transform="translate(605, 446)" data-object-id="mo_mo55oekl_pnlie5" data-object-type="rect" cursor="move"><rect x="0" y="0" width="5" height="18" rx="2.5" ry="2.5" fill="#ffffff" stroke="none"/></g><g transform="translate(613, 453)" data-object-id="mo_mo55oekl_zbj00o" data-object-type="rect" cursor="move"><rect x="0" y="0" width="5" height="11" rx="2.5" ry="2.5" fill="#ffffff" stroke="none"/></g><g transform="translate(581, 453)" data-object-id="mo_mo55oekm_rqxv33" data-object-type="rect" cursor="move"><rect x="0" y="0" width="5" height="11" rx="2.5" ry="2.5" fill="#ffffff" stroke="none"/></g><g transform="translate(589, 446)" data-object-id="mo_mo55oekm_3mry6u" data-object-type="rect" cursor="move"><rect x="0" y="0" width="5" height="18" rx="2.5" ry="2.5" fill="#ffffff" stroke="none"/></g><g transform="translate(597, 438)" data-object-id="mo_mo55oekm_70d3vf" data-object-type="rect" cursor="move"><rect x="0" y="0" width="5" height="26" rx="2.5" ry="2.5" fill="#ffffff" stroke="none"/></g><g transform="translate(605, 446)" data-object-id="mo_mo55oekm_znc9nu" data-object-type="rect" cursor="move"><rect x="0" y="0" width="5" height="18" rx="2.5" ry="2.5" fill="#ffffff" stroke="none"/></g><g transform="translate(613, 453)" data-object-id="mo_mo55oekm_mqo4rb" data-object-type="rect" cursor="move"><rect x="0" y="0" width="5" height="11" rx="2.5" ry="2.5" fill="#ffffff" stroke="none"/></g></svg>