<svg class="material-renderer-svg" viewBox="276 176 48 48" xmlns="http://www.w3.org/2000/svg" width="48" height="48"><defs/><rect x="0" y="0" width="600" height="400" fill="transparent" data-canvas-bg="true"/><g transform="translate(276, 176)" data-object-id="default_8cfa85d9-942d-4f40-b5d8-2f0b5781d617" data-object-type="rect" cursor="default" style="display: none; pointer-events: all; cursor: default;"><rect x="0" y="0" width="48" height="48" rx="0" ry="0" fill="#ffffff" stroke="none"/></g><g transform="translate(576, 426)" data-object-id="mo_moclktyq_1ae23h" data-object-type="rect" cursor="move"><rect x="0" y="0" width="48" height="48" rx="24" ry="24" fill="linear-gradient(135deg, #f5b6d8, #e879f9, #c084fc)" stroke="none"/></g><g transform="translate(576, 426)" data-object-id="mo_moclktyr_2lwzt4" data-object-type="path" cursor="move"><path d="M14 32L14 24a2 2 0 014 0v8a2 2 0 01-4 0zM20 32L20 28a2 2 0 014 0v4a2 2 0 01-4 0zM26 32L26 18a2 2 0 014 0v14a2 2 0 01-4 0zM32 32L32 22a2 2 0 014 0v10a2 2 0 01-4 0zM38 32L38 27a2 2 0 014 0v5a2 2 0 01-4 0z" fill="#ffffff" stroke="none"/></g><g transform="translate(576, 426)" data-object-id="mo_moclktyr_bqkbxj" data-object-type="path" cursor="move"><path d="M14 32L14 24a2 2 0 014 0v8a2 2 0 01-4 0zM20 32L20 28a2 2 0 014 0v4a2 2 0 01-4 0zM26 32L26 18a2 2 0 014 0v14a2 2 0 01-4 0zM32 32L32 22a2 2 0 014 0v10a2 2 0 01-4 0zM38 32L38 27a2 2 0 04 0v5a2 2 0 01-4 0z" fill="#ffffff" stroke="none"/></g><g transform="translate(276, 176)" data-object-id="mo_moclktys_khq5yy" data-object-type="path" cursor="move"><path d="M14 32L14 24a2 2 0 014 0v8a2 2 0 01-4 0zM20 32L20 28a2 2 0 014 0v4a2 2 0 01-4 0zM26 32L26 18a2 2 0 014 0v14a2 2 0 01-4 0zM32 32L32 22a2 2 0 014 0v10a2 2 0 01-4 0zM38 32L38 27a2 2 0 04 0v5a2 2 0 01-4 0z" fill="#ffffff" stroke="none"/></g><g transform="translate(290, 200)" data-object-id="mo_moclktys_tkvkh3" data-object-type="rect" cursor="move"><rect x="0" y="0" width="3.5" height="8" rx="1.5" ry="1.5" fill="#ffffff" stroke="none"/></g><g transform="translate(290, 200)" data-object-id="mo_moclktys_yir2b3" data-object-type="rect" cursor="move"><rect x="0" y="0" width="3.5" height="8" rx="1.5" ry="1.5" fill="#ffffff" stroke="none"/></g><g transform="translate(296, 204)" data-object-id="mo_moclktys_77a37o" data-object-type="rect" cursor="move"><rect x="0" y="0" width="3.5" height="4" rx="1.5" ry="1.5" fill="#ffffff" stroke="none"/></g><g transform="translate(296, 204)" data-object-id="mo_moclktys_470bwm" data-object-type="rect" cursor="move"><rect x="0" y="0" width="3.5" height="4" rx="1.5" ry="1.5" fill="#ffffff" stroke="none"/></g><g transform="translate(302, 194)" data-object-id="mo_moclktys_2bflt0" data-object-type="rect" cursor="move"><rect x="0" y="0" width="3.5" height="14" rx="1.5" ry="1.5" fill="#ffffff" stroke="none"/></g><g transform="translate(302, 194)" data-object-id="mo_moclktys_xtn7go" data-object-type="rect" cursor="move"><rect x="0" y="0" width="3.5" height="14" rx="1.5" ry="1.5" fill="#ffffff" stroke="none"/></g><g transform="translate(308, 198)" data-object-id="mo_moclktyt_0ar1ox" data-object-type="rect" cursor="move"><rect x="0" y="0" width="3.5" height="10" rx="1.5" ry="1.5" fill="#ffffff" stroke="none"/></g><g transform="translate(308, 198)" data-object-id="mo_moclktyt_rbygx0" data-object-type="rect" cursor="move"><rect x="0" y="0" width="3.5" height="10" rx="1.5" ry="1.5" fill="#ffffff" stroke="none"/></g><g transform="translate(314, 203)" data-object-id="mo_moclktyt_lhuy1i" data-object-type="rect" cursor="move"><rect x="0" y="0" width="3.5" height="5" rx="1.5" ry="1.5" fill="#ffffff" stroke="none"/></g><g transform="translate(314, 203)" data-object-id="mo_moclktyt_4bnhrw" data-object-type="rect" cursor="move"><rect x="0" y="0" width="3.5" height="5" rx="1.5" ry="1.5" fill="#ffffff" stroke="none"/></g><g transform="translate(289, 189)" data-object-id="mo_mocm1up4_oy965g" data-object-type="rect" cursor="move"><rect x="0" y="0" width="22" height="22" rx="6" ry="6" fill="#ffffff" stroke="none"/></g><g transform="translate(289, 189)" data-object-id="mo_mocm1up5_25q33a" data-object-type="rect" cursor="move"><rect x="0" y="0" width="22" height="22" rx="6" ry="6" fill="#ffffff" stroke="none"/></g><g transform="translate(294, 197)" data-object-id="mo_mocm1up5_62kt7u" data-object-type="rect" cursor="move"><rect x="0" y="0" width="2.5" height="7" rx="1.2" ry="1.2" fill="#d977b9" stroke="none"/></g><g transform="translate(294, 197)" data-object-id="mo_mocm1up5_7ls90h" data-object-type="rect" cursor="move"><rect x="0" y="0" width="2.5" height="7" rx="1.2" ry="1.2" fill="#d977b9" stroke="none"/></g><g transform="translate(298, 195)" data-object-id="mo_mocm1up5_lghy35" data-object-type="rect" cursor="move"><rect x="0" y="0" width="2.5" height="11" rx="1.2" ry="1.2" fill="#d977b9" stroke="none"/></g><g transform="translate(298, 195)" data-object-id="mo_mocm1up5_5ru8wt" data-object-type="rect" cursor="move"><rect x="0" y="0" width="2.5" height="11" rx="1.2" ry="1.2" fill="#d977b9" stroke="none"/></g><g transform="translate(302, 193)" data-object-id="mo_mocm1up5_u5cxs5" data-object-type="rect" cursor="move"><rect x="0" y="0" width="2.5" height="14" rx="1.2" ry="1.2" fill="#d977b9" stroke="none"/></g><g transform="translate(302, 193)" data-object-id="mo_mocm1up5_zd65u0" data-object-type="rect" cursor="move"><rect x="0" y="0" width="2.5" height="14" rx="1.2" ry="1.2" fill="#d977b9" stroke="none"/></g><g transform="translate(306, 196)" data-object-id="mo_mocm1up5_1dg2i7" data-object-type="rect" cursor="move"><rect x="0" y="0" width="2.5" height="9" rx="1.2" ry="1.2" fill="#d977b9" stroke="none"/></g><g transform="translate(306, 196)" data-object-id="mo_mocm1up5_s1nbvf" data-object-type="rect" cursor="move"><rect x="0" y="0" width="2.5" height="9" rx="1.2" ry="1.2" fill="#d977b9" stroke="none"/></g></svg>