<svg class="material-renderer-svg" viewBox="276 176 48 48" xmlns="http://www.w3.org/2000/svg" width="48" height="48"><defs/><rect x="0" y="0" width="600" height="400" fill="transparent" data-canvas-bg="true"/><g transform="translate(276, 176)" data-object-id="default_8cfa85d9-942d-4f40-b5d8-2f0b5781d617" data-object-type="rect" cursor="default" style="pointer-events: all; cursor: default;"><rect x="0" y="0" width="48" height="48" rx="0" ry="0" fill="rgba(0,0,0,0.001)" stroke="none"/></g><g transform="translate(276, 176)" data-object-id="mo_mocnw6fr_svw275" data-object-type="rect" cursor="move"><rect x="0" y="0" width="48" height="48" rx="24" ry="24" fill="linear-gradient(135deg, #f472b6 0%, #fb923c 100%)" stroke="none"/></g><g transform="translate(288.5, 194)" data-object-id="mo_moco0243_00rmba" data-object-type="rect" cursor="move"><rect x="0" y="0" width="3.5" height="12" rx="1.5" ry="0" fill="#ffffff" stroke="none"/></g><g transform="translate(293.75, 191)" data-object-id="mo_moco044b_g06xo9" data-object-type="rect" cursor="move"><rect x="0" y="0" width="3.5" height="18" rx="1.5" ry="0" fill="#ffffff" stroke="none"/></g><g transform="translate(299, 189)" data-object-id="mo_moco06ym_1fkpzp" data-object-type="rect" cursor="move"><rect x="0" y="0" width="3.5" height="22" rx="1.5" ry="0" fill="#ffffff" stroke="none"/></g><g transform="translate(304.25, 192)" data-object-id="mo_moco09tm_0166ua" data-object-type="rect" cursor="move"><rect x="0" y="0" width="3.5" height="16" rx="1.5" ry="0" fill="#ffffff" stroke="none"/></g><g transform="translate(309.5, 195)" data-object-id="mo_moco0b6r_abswde" data-object-type="rect" cursor="move"><rect x="0" y="0" width="3.5" height="10" rx="1.5" ry="0" fill="#ffffff" stroke="none"/></g></svg>