<svg class="material-renderer-svg" viewBox="572 434 56 32" xmlns="http://www.w3.org/2000/svg" width="56" height="32"><defs/><rect x="0" y="0" width="1200" height="900" fill="transparent" data-canvas-bg="true"/><g transform="translate(572, 434)" data-object-id="default_d6dba93b-db5d-428b-bf48-3057667e2078" data-object-type="rect" cursor="default" style="opacity: 0;"><rect x="0" y="0" width="56" height="32" rx="0" ry="0" fill="rgba(0,0,0,0)" stroke="none"/></g><g transform="translate(582, 456)" data-object-id="mo_mo57lhlx_qxdcfp" data-object-type="rect" cursor="move"><rect x="0" y="0" width="4" height="10" rx="2" ry="2" fill="#ffffff" stroke="none"/></g><g transform="translate(581, 453)" data-object-id="mo_mo57lhlx_3wm85v" data-object-type="rect" cursor="move"><rect x="0" y="0" width="5" height="11" rx="2.5" ry="2.5" fill="#ffffff" stroke="none"/></g><g transform="translate(589, 446)" data-object-id="mo_mo57lhlx_5lset6" data-object-type="rect" cursor="move"><rect x="0" y="0" width="5" height="18" rx="2.5" ry="2.5" fill="#ffffff" stroke="none"/></g><g transform="translate(597, 438)" data-object-id="mo_mo57lhlx_e6f6d7" data-object-type="rect" cursor="move"><rect x="0" y="0" width="5" height="26" rx="2.5" ry="2.5" fill="#ffffff" stroke="none"/></g><g transform="translate(605, 446)" data-object-id="mo_mo57lhlx_pkp57c" data-object-type="rect" cursor="move"><rect x="0" y="0" width="5" height="18" rx="2.5" ry="2.5" fill="#ffffff" stroke="none"/></g><g transform="translate(613, 453)" data-object-id="mo_mo57lhlx_9sdulu" data-object-type="rect" cursor="move"><rect x="0" y="0" width="5" height="11" rx="2.5" ry="2.5" fill="#ffffff" stroke="none"/></g></svg>