<svg class="material-renderer-svg" viewBox="276 176 48 48" xmlns="http://www.w3.org/2000/svg" width="48" height="48"><defs/><rect x="0" y="0" width="600" height="400" fill="transparent" data-canvas-bg="true"/><g transform="translate(276, 176)" data-object-id="default_8cfa85d9-942d-4f40-b5d8-2f0b5781d617" data-object-type="rect" cursor="default" style="display: none;"><rect x="0" y="0" width="48" height="48" rx="0" ry="0" fill="#ffffff" stroke="none"/></g><g transform="translate(286, 186)" data-object-id="mo_mocllanu_77hqbg" data-object-type="rect" cursor="move"><rect x="0" y="0" width="28" height="28" rx="7" ry="7" fill="#ffffff" stroke="none"/></g><g transform="translate(286, 186)" data-object-id="mo_mocllao0_nyjy2g" data-object-type="rect" cursor="move"><rect x="0" y="0" width="28" height="28" rx="7" ry="7" fill="#ffffff" stroke="none"/></g><g transform="translate(291, 196)" data-object-id="mo_moclllk8_3dkjlr" data-object-type="rect" cursor="move"><rect x="0" y="0" width="1.8" height="7" rx="0.9" ry="0.9" fill="#d977b9" stroke="none"/></g><g transform="translate(291, 196)" data-object-id="mo_moclllkk_f412sk" data-object-type="rect" cursor="move"><rect x="0" y="0" width="1.8" height="7" rx="0.9" ry="0.9" fill="#d977b9" stroke="none"/></g><g transform="translate(295, 194)" data-object-id="mo_mocllmzq_ujgo8z" data-object-type="rect" cursor="move"><rect x="0" y="0" width="1.8" height="11" rx="0.9" ry="0.9" fill="#d977b9" stroke="none"/></g><g transform="translate(295, 194)" data-object-id="mo_moclln01_iu92nw" data-object-type="rect" cursor="move"><rect x="0" y="0" width="1.8" height="11" rx="0.9" ry="0.9" fill="#d977b9" stroke="none"/></g><g transform="translate(299, 192)" data-object-id="mo_mocllom4_mbmdfe" data-object-type="rect" cursor="move"><rect x="0" y="0" width="1.8" height="14" rx="0.9" ry="0.9" fill="#d977b9" stroke="none"/></g><g transform="translate(299, 192)" data-object-id="mo_mocllomb_f45phz" data-object-type="rect" cursor="move"><rect x="0" y="0" width="1.8" height="14" rx="0.9" ry="0.9" fill="#d977b9" stroke="none"/></g><g transform="translate(303, 195)" data-object-id="mo_mocllq5v_lmokpg" data-object-type="rect" cursor="move"><rect x="0" y="0" width="1.8" height="9" rx="0.9" ry="0.9" fill="#d977b9" stroke="none"/></g><g transform="translate(303, 195)" data-object-id="mo_mocllq62_7qezbl" data-object-type="rect" cursor="move"><rect x="0" y="0" width="1.8" height="9" rx="0.9" ry="0.9" fill="#d977b9" stroke="none"/></g></svg>