<svg class="material-renderer-svg" viewBox="552 402 96 96" xmlns="http://www.w3.org/2000/svg" width="96" height="96"><defs/><rect x="0" y="0" width="1200" height="900" fill="transparent" data-canvas-bg="true"/><g transform="translate(552, 402)" data-object-id="default_95695418-fd82-404a-98c1-ab8dd754010f" data-object-type="rect" cursor="default" style="pointer-events: all; cursor: default;"><rect x="0" y="0" width="96" height="96" rx="0" ry="0" fill="rgba(0,0,0,0.001)" stroke="none"/></g><g transform="translate(552, 402)" data-object-id="mo_mpwmtht2_ms4bq4" data-object-type="path" cursor="move"><path d="M 48 22 L 22 30 L 18 36 L 18 70 L 22 74 L 48 74 Z" fill="none" stroke="#5B6CFF" stroke-width="2"/></g><g transform="translate(552, 402)" data-object-id="mo_mpwmthth_adae2c" data-object-type="path" cursor="move"><path d="M 48 22 L 22 30 L 18 36 L 18 70 L 22 74 L 48 74 Z" fill="none" stroke="#5B6CFF" stroke-width="2"/></g><g transform="translate(552, 402)" data-object-id="mo_mpwmtogz_qceqzd" data-object-type="path" cursor="move"><path d="M 48 22 L 74 30 L 78 36 L 78 70 L 74 74 L 48 74 Z" fill="none" stroke="#5B6CFF" stroke-width="2"/></g><g transform="translate(552, 402)" data-object-id="mo_mpwmtoh8_qtlbaj" data-object-type="path" cursor="move"><path d="M 48 22 L 74 30 L 78 36 L 78 70 L 74 74 L 48 74 Z" fill="none" stroke="#5B6CFF" stroke-width="2"/></g><g transform="translate(552, 402)" data-object-id="mo_mpwmtuc6_nj70p2" data-object-type="path" cursor="move"><path d="M 48 22 L 48 74" fill="none" stroke="#5B6CFF" stroke-width="2"/></g><g transform="translate(552, 402)" data-object-id="mo_mpwmtucd_n8aadb" data-object-type="path" cursor="move"><path d="M 48 22 L 48 74" fill="none" stroke="#5B6CFF" stroke-width="2"/></g><g transform="translate(624, 408)" data-object-id="mo_mpwmu1i0_56f5br" data-object-type="ellipse" cursor="move"><ellipse cx="6" cy="6" rx="6" ry="6" fill="#F39B66" stroke="none"/></g></svg>